<svg t="1744161777143" class="icon" viewBox="0 0 1024 1024" version="1.1" xmlns="http://www.w3.org/2000/svg" p-id="972" width="200" height="200">
<path d="M175.06304 271.9744a20.48 20.48 0 0 0-20.48 20.48V705.3312a20.48 20.48 0 0 0 20.48 20.48h673.87392a20.48 20.48 0 0 0 20.48-20.48V292.4544a20.48 20.48 0 0 0-20.48-20.48H175.06304z m-81.92 20.48a81.92 81.92 0 0 1 81.92-81.92h673.87392a81.92 81.92 0 0 1 81.92 81.92V705.3312a81.92 81.92 0 0 1-81.92 81.92H175.06304a81.92 81.92 0 0 1-81.92-81.92V292.4544z" fill="#4D4D4D" p-id="973"></path>
<path d="M459.40736 432.9472a103.95648 103.95648 0 0 1-12.20608 48.57856 101.9904 101.9904 0 0 1-33.62816 37.10976 103.424 103.424 0 0 1-77.4144 15.40096 103.6288 103.6288 0 0 1-52.75648-28.22144 103.34208 103.34208 0 0 1-28.18048-92.9792A102.97344 102.97344 0 0 1 376.4224 331.776a103.05536 103.05536 0 0 1 82.98496 101.13024z m-49.152 0A53.82144 53.82144 0 0 0 351.0272 379.2896a53.98528 53.98528 0 0 0-36.41344 87.8592 54.272 54.272 0 0 0 36.41344 19.456 54.23104 54.23104 0 0 0 43.4176-15.5648 54.0672 54.0672 0 0 0 15.7696-38.0928z" fill="#14C188" p-id="974"></path>
<path d="M245.63712 557.2608a150.81472 150.81472 0 0 0-45.8752 110.71488 24.576 24.576 0 1 0 49.152 0c0-29.65504 10.48576-54.96832 31.45728-75.93984a103.46496 103.46496 0 0 1 75.93984-31.45728c29.65504 0 54.96832 10.48576 75.93984 31.45728s31.45728 46.2848 31.45728 75.93984a24.49408 24.49408 0 0 0 38.21568 20.43904 24.69888 24.69888 0 0 0 10.93632-20.48 150.81472 150.81472 0 0 0-45.8752-110.63296 150.81472 150.81472 0 0 0-110.67392-45.8752 150.85568 150.85568 0 0 0-110.67392 45.8752zM592.60928 402.18624h164.6592a30.72 30.72 0 1 1 0 61.44h-164.6592a30.67904 30.67904 0 1 1 0-61.44zM592.60928 552.59136h164.6592a30.72 30.72 0 0 1 0 61.44h-164.6592a30.67904 30.67904 0 1 1 0-61.44z" fill="#14C188" p-id="975"></path>
</svg>